<?xml version="1.0" encoding="UTF-8" standalone="no"?>
<!DOCTYPE svg PUBLIC "-//W3C//DTD SVG 1.1//EN" "http://www.w3.org/Graphics/SVG/1.1/DTD/svg11.dtd">
<svg width="100%" height="100%" viewBox="0 0 2481 3508" version="1.1" xmlns="http://www.w3.org/2000/svg" xmlns:xlink="http://www.w3.org/1999/xlink" xml:space="preserve" xmlns:serif="http://www.serif.com/" style="fill-rule:evenodd;clip-rule:evenodd;stroke-linejoin:round;stroke-miterlimit:2;">
    <g transform="matrix(2.57478,0,0,2.57478,-1801.5,-2012.03)">
        <g transform="matrix(0.992819,0,0,0.992819,878.238,1324.89)">
            <text x="0px" y="0px" style="font-family:'Garamond', serif;font-size:131.843px;fill:rgb(246,246,246);">S</text>
        </g>
        <g transform="matrix(1.03836,0,0,1.03836,1129.05,1326.6)">
            <text x="0px" y="0px" style="font-family:'Garamond', serif;font-size:131.843px;fill:rgb(246,246,246);">L</text>
        </g>
        <g transform="matrix(1,0,0,1.03375,1039.77,1326.07)">
            <g transform="matrix(131.843,0,0,131.843,86.5222,0)">
            </g>
            <text x="0px" y="0px" style="font-family:'Garamond', serif;font-size:131.843px;fill:rgb(246,246,246);">E</text>
        </g>
        <g transform="matrix(1.01735,0,0,1.01735,1196.43,1324.45)">
            <g transform="matrix(131.843,0,0,131.843,89.2904,0)">
            </g>
            <text x="0px" y="0px" style="font-family:'Garamond', serif;font-size:131.843px;fill:rgb(246,246,246);">V</text>
        </g>
        <g transform="matrix(1,0,0,1,1376,1324.88)">
            <text x="0px" y="0px" style="font-family:'Garamond', serif;font-size:131.843px;fill:rgb(246,246,246);">S</text>
        </g>
        <g transform="matrix(1,0,0,1.03375,1289.94,1326.07)">
            <g transform="matrix(131.843,0,0,131.843,86.5222,0)">
            </g>
            <text x="0px" y="0px" style="font-family:'Garamond', serif;font-size:131.843px;fill:rgb(246,246,246);">E</text>
        </g>
        <g transform="matrix(1,0,0,1,939.516,1325.65)">
            <text x="0px" y="0px" style="font-family:'Garamond', serif;font-size:131.843px;fill:rgb(246,246,246);">H</text>
        </g>
        <g transform="matrix(0.388382,0,0,0.388382,699.671,781.438)">
            <path d="M682.425,1239.82C681.239,1239.82 680.275,1238.86 680.275,1237.67C680.275,1236.48 681.239,1235.52 682.425,1235.52L805.848,1235.52C807.034,1235.52 807.998,1236.48 807.998,1237.67C807.998,1238.86 807.034,1239.82 805.848,1239.82L682.425,1239.82Z" style="fill:rgb(246,246,246);"/>
        </g>
        <g transform="matrix(0.388382,0,0,0.388382,699.671,781.438)">
            <path d="M811.633,1235.24C812.82,1235.24 813.783,1236.21 813.783,1237.39C813.783,1238.58 812.82,1239.54 811.633,1239.54L673.885,1239.54C672.698,1239.54 671.735,1238.58 671.735,1237.39C671.735,1236.21 672.698,1235.24 673.885,1235.24L811.633,1235.24Z" style="fill:rgb(246,246,246);"/>
        </g>
        <g transform="matrix(0.388382,0,0,0.388382,699.671,781.438)">
            <path d="M681.323,1237.89C680.137,1237.89 679.173,1236.93 679.173,1235.74C679.173,1234.55 680.137,1233.59 681.323,1233.59L814.113,1233.59C815.299,1233.59 816.263,1234.55 816.263,1235.74C816.263,1236.93 815.299,1237.89 814.113,1237.89L681.323,1237.89Z" style="fill:rgb(246,246,246);"/>
        </g>
        <g transform="matrix(0.388382,0,0,0.388382,699.671,781.438)">
            <path d="M682.701,1295.19C681.514,1295.19 680.551,1294.23 680.551,1293.04C680.551,1291.86 681.514,1290.89 682.701,1290.89L814.664,1290.89C815.85,1290.89 816.814,1291.86 816.814,1293.04C816.814,1294.23 815.85,1295.19 814.664,1295.19L682.701,1295.19Z" style="fill:rgb(246,246,246);"/>
        </g>
        <g transform="matrix(0.388382,0,0,0.388382,699.671,781.438)">
            <path d="M685.456,1292.99C684.269,1292.99 683.306,1292.03 683.306,1290.84C683.306,1289.65 684.269,1288.69 685.456,1288.69L803.644,1288.69C804.83,1288.69 805.794,1289.65 805.794,1290.84C805.794,1292.03 804.83,1292.99 803.644,1292.99L685.456,1292.99Z" style="fill:rgb(246,246,246);"/>
        </g>
        <g transform="matrix(0.388382,0,0,0.388382,699.671,779.496)">
            <path d="M681.599,1356.84C680.412,1356.84 679.449,1355.87 679.449,1354.69C679.449,1353.5 680.412,1352.54 681.599,1352.54L812.735,1352.54C813.922,1352.54 814.885,1353.5 814.885,1354.69C814.885,1355.87 813.922,1356.84 812.735,1356.84L681.599,1356.84Z" style="fill:rgb(246,246,246);"/>
        </g>
        <g transform="matrix(0.388382,0,0,0.388382,699.671,781.438)">
            <path d="M681.599,1360.14C680.412,1360.14 679.449,1359.18 679.449,1357.99C679.449,1356.81 680.412,1355.84 681.599,1355.84L816.317,1355.84C817.503,1355.84 818.467,1356.81 818.467,1357.99C818.467,1359.18 817.503,1360.14 816.317,1360.14L681.599,1360.14Z" style="fill:rgb(246,246,246);"/>
        </g>
        <path d="M965.75,1282.39C965.482,1282.39 965.264,1282.17 965.264,1281.9C965.264,1281.63 965.482,1281.42 965.75,1281.42L1012.92,1281.42C1013.19,1281.42 1013.4,1281.63 1013.4,1281.9C1013.4,1282.17 1013.19,1282.39 1012.92,1282.39L965.75,1282.39Z" style="fill:rgb(246,246,246);"/>
        <path d="M964.96,1286.45C964.692,1286.45 964.475,1286.23 964.475,1285.96C964.475,1285.7 964.692,1285.48 964.96,1285.48L1015.06,1285.48C1015.33,1285.48 1015.55,1285.7 1015.55,1285.96C1015.55,1286.23 1015.33,1286.45 1015.06,1286.45L964.96,1286.45Z" style="fill:rgb(246,246,246);"/>
        <path d="M963.832,1263.77C963.564,1263.77 963.346,1263.55 963.346,1263.28C963.346,1263.02 963.564,1262.8 963.832,1262.8L1013.93,1262.8C1014.2,1262.8 1014.42,1263.02 1014.42,1263.28C1014.42,1263.55 1014.2,1263.77 1013.93,1263.77L963.832,1263.77Z" style="fill:rgb(246,246,246);"/>
        <path d="M964.057,1262.41C963.789,1262.41 963.572,1262.2 963.572,1261.93C963.572,1261.66 963.789,1261.44 964.057,1261.44L1014.95,1261.44C1015.22,1261.44 1015.44,1261.66 1015.44,1261.93C1015.44,1262.2 1015.22,1262.41 1014.95,1262.41L964.057,1262.41Z" style="fill:rgb(246,246,246);"/>
        <path d="M965.299,1260.72C965.031,1260.72 964.813,1260.5 964.813,1260.24C964.813,1259.97 965.031,1259.75 965.299,1259.75L1014.27,1259.75C1014.54,1259.75 1014.76,1259.97 1014.76,1260.24C1014.76,1260.5 1014.54,1260.72 1014.27,1260.72L965.299,1260.72Z" style="fill:rgb(246,246,246);"/>
        <path d="M965.411,1309.81C965.143,1309.81 964.926,1309.59 964.926,1309.32C964.926,1309.06 965.143,1308.84 965.411,1308.84L1019.58,1308.84C1019.84,1308.84 1020.06,1309.06 1020.06,1309.32C1020.06,1309.59 1019.84,1309.81 1019.58,1309.81L965.411,1309.81Z" style="fill:rgb(246,246,246);"/>
        <path d="M965.186,1307.89C964.918,1307.89 964.7,1307.67 964.7,1307.4C964.7,1307.14 964.918,1306.92 965.186,1306.92L1015.51,1306.92C1015.78,1306.92 1016,1307.14 1016,1307.4C1016,1307.67 1015.78,1307.89 1015.51,1307.89L965.186,1307.89Z" style="fill:rgb(246,246,246);"/>
        <path d="M965.073,1306.88C964.805,1306.88 964.587,1306.66 964.587,1306.39C964.587,1306.12 964.805,1305.9 965.073,1305.9L1013.71,1305.9C1013.98,1305.9 1014.19,1306.12 1014.19,1306.39C1014.19,1306.66 1013.98,1306.88 1013.71,1306.88L965.073,1306.88Z" style="fill:rgb(246,246,246);"/>
        <path d="M965.637,1306.31C965.369,1306.31 965.152,1306.09 965.152,1305.83C965.152,1305.56 965.369,1305.34 965.637,1305.34L1013.48,1305.34C1013.75,1305.34 1013.97,1305.56 1013.97,1305.83C1013.97,1306.09 1013.75,1306.31 1013.48,1306.31L965.637,1306.31Z" style="fill:rgb(246,246,246);"/>
        <path d="M965.322,1247.3C965.322,1247.03 965.539,1246.81 965.807,1246.81C966.075,1246.81 966.293,1247.03 966.293,1247.3L966.293,1324.26C966.293,1324.53 966.075,1324.74 965.807,1324.74C965.539,1324.74 965.322,1324.53 965.322,1324.26L965.322,1247.3Z" style="fill:rgb(246,246,246);"/>
        <path d="M1013.28,1246.28C1013.28,1246.02 1013.5,1245.8 1013.76,1245.8C1014.03,1245.8 1014.25,1246.02 1014.25,1246.28L1014.25,1322.9C1014.25,1323.17 1014.03,1323.39 1013.76,1323.39C1013.5,1323.39 1013.28,1323.17 1013.28,1322.9L1013.28,1246.28Z" style="fill:rgb(246,246,246);"/>
    </g>
</svg>
